<svg width="20" height="20" viewBox="0 0 20 20" fill="none" xmlns="http://www.w3.org/2000/svg">
<g clip-path="url(#clip0_4901_1151)">
<path d="M7.25 14.9998H2.5C1.25583 14.9998 0 14.0548 0 11.9448V7.74479C0.0175226 5.82993 0.734522 3.98754 2.01598 2.56457C3.29744 1.1416 5.05493 0.236229 6.9575 0.018952C8.03113 -0.0589861 9.10896 0.0951034 10.1178 0.47075C11.1265 0.846396 12.0426 1.4348 12.8038 2.19597C13.565 2.95714 14.1534 3.87324 14.529 4.88203C14.9047 5.89082 15.0588 6.96865 14.9808 8.04229C14.7633 9.94563 13.8571 11.7037 12.4332 12.9852C11.0092 14.2668 9.16567 14.9833 7.25 14.9998ZM16.6667 7.56645H16.6567C16.6567 7.76395 16.6567 7.96145 16.6467 8.15979C16.325 12.6665 12.2058 16.4815 7.57 16.6506V16.6631C8.15384 17.6757 8.99364 18.517 10.0052 19.1026C11.0167 19.6883 12.1645 19.9977 13.3333 19.9998H17.5C18.163 19.9998 18.7989 19.7364 19.2678 19.2676C19.7366 18.7987 20 18.1628 20 17.4998V13.3331C19.9988 12.164 19.6902 11.0158 19.1051 10.0037C18.5201 8.9915 17.6791 8.151 16.6667 7.56645Z" fill="#054462"/>
</g>
<defs>
<clipPath id="clip0_4901_1151">
<rect width="20" height="20" fill="white"/>
</clipPath>
</defs>
</svg>
