<svg width="40" height="40" viewBox="0 0 40 40" fill="none" xmlns="http://www.w3.org/2000/svg">
<circle cx="20" cy="20" r="20" fill="url(#paint0_radial_4901_1132)"/>
<path fill-rule="evenodd" clip-rule="evenodd" d="M14.291 10.2499C11.9898 10.2499 10.1243 12.19 10.1243 14.5833V25.4166C10.1243 27.8098 11.9898 29.7499 14.291 29.7499H24.7077C27.0089 29.7499 28.8743 27.8098 28.8743 25.4166V14.5833C28.8743 12.19 27.0089 10.2499 24.7077 10.2499H14.291ZM8.04102 14.5833C8.04102 10.9934 10.8392 8.08325 14.291 8.08325H24.7077C28.1595 8.08325 30.9577 10.9934 30.9577 14.5833V25.4166C30.9577 29.0064 28.1595 31.9166 24.7077 31.9166H14.291C10.8392 31.9166 8.04102 29.0064 8.04102 25.4166V14.5833Z" fill="white"/>
<path fill-rule="evenodd" clip-rule="evenodd" d="M20.0027 16.7382C19.3525 16.6379 18.6884 16.7534 18.105 17.0683C17.5216 17.3831 17.0484 17.8813 16.7529 18.4919C16.4574 19.1025 16.3545 19.7945 16.459 20.4694C16.5634 21.1443 16.8698 21.7678 17.3346 22.2511C17.7994 22.7345 18.3989 23.0532 19.0478 23.1618C19.6968 23.2704 20.3621 23.1634 20.9492 22.8561C21.5364 22.5487 22.0154 22.0567 22.3181 21.4499C22.6208 20.8431 22.7319 20.1525 22.6355 19.4763C22.5371 18.7866 22.2281 18.148 21.754 17.655C21.2799 17.1619 20.6659 16.8405 20.0027 16.7382ZM17.1455 15.1451C18.1179 14.6204 19.2246 14.4279 20.3083 14.595C21.4136 14.7654 22.437 15.3011 23.2271 16.1229C24.0173 16.9447 24.5324 18.0089 24.6963 19.1585C24.857 20.2855 24.6719 21.4365 24.1673 22.4478C23.6628 23.4591 22.8644 24.2792 21.8859 24.7914C20.9074 25.3036 19.7984 25.4819 18.7168 25.3009C17.6352 25.1199 16.6361 24.5888 15.8614 23.7832C15.0868 22.9776 14.5761 21.9384 14.4021 20.8136C14.228 19.6887 14.3995 18.5355 14.892 17.5178C15.3845 16.5001 16.1731 15.6698 17.1455 15.1451Z" fill="white"/>
<path fill-rule="evenodd" clip-rule="evenodd" d="M24.1875 14.0416C24.1875 13.4433 24.6539 12.9583 25.2292 12.9583H25.2396C25.8149 12.9583 26.2812 13.4433 26.2812 14.0416C26.2812 14.6399 25.8149 15.1249 25.2396 15.1249H25.2292C24.6539 15.1249 24.1875 14.6399 24.1875 14.0416Z" fill="white"/>
<defs>
<radialGradient id="paint0_radial_4901_1132" cx="0" cy="0" r="1" gradientUnits="userSpaceOnUse" gradientTransform="translate(5.5 35) rotate(-45.9878) scale(41.0183)">
<stop stop-color="#FFDA55"/>
<stop offset="0.417909" stop-color="#F9514A"/>
<stop offset="0.70335" stop-color="#B831B6"/>
<stop offset="0.942708" stop-color="#4069C9"/>
</radialGradient>
</defs>
</svg>
