<svg width="80" height="80" viewBox="0 0 80 80" fill="none" xmlns="http://www.w3.org/2000/svg">
<rect width="80" height="80" rx="12" fill="#28B7FB"/>
<path d="M65 52.4828H15V54.2069H65V52.4828Z" fill="white"/>
<path d="M16.7241 50.7586H23.6207C23.6207 44.4379 21.8966 40.4138 21.8966 40.4138C33.9655 40.4138 39.1379 23.1724 39.1379 23.1724H16.7241V50.7586Z" fill="white"/>
<path d="M58.1034 40.4138C58.1034 40.4138 56.3793 44.4379 56.3793 50.7586H63.2759V23.1724H40.8621C40.8621 23.1724 46.0345 40.4138 58.1034 40.4138Z" fill="white"/>
<path d="M65 18H15V21.4483H65V18Z" fill="white"/>
<path d="M18.4483 55.931C16.5448 55.931 15 57.4759 15 59.3793V62.8276H21.8966V59.3793C21.8966 57.4759 20.3517 55.931 18.4483 55.931Z" fill="white"/>
<path d="M27.069 55.931C25.1655 55.931 23.6207 57.4759 23.6207 59.3793V62.8276H30.5172V59.3793C30.5172 57.4759 28.9724 55.931 27.069 55.931Z" fill="white"/>
<path d="M35.6897 55.931C33.7862 55.931 32.2414 57.4759 32.2414 59.3793V62.8276H39.1379V59.3793C39.1379 57.4759 37.5931 55.931 35.6897 55.931Z" fill="white"/>
<path d="M44.3103 55.931C42.4069 55.931 40.8621 57.4759 40.8621 59.3793V62.8276H47.7586V59.3793C47.7586 57.4759 46.2138 55.931 44.3103 55.931Z" fill="white"/>
<path d="M52.931 55.931C51.0276 55.931 49.4828 57.4759 49.4828 59.3793V62.8276H56.3793V59.3793C56.3793 57.4759 54.8345 55.931 52.931 55.931Z" fill="white"/>
<path d="M61.5517 55.931C59.6483 55.931 58.1034 57.4759 58.1034 59.3793V62.8276H65V59.3793C65 57.4759 63.4552 55.931 61.5517 55.931Z" fill="white"/>
</svg>
