<svg width="81" height="80" viewBox="0 0 81 80" fill="none" xmlns="http://www.w3.org/2000/svg">
<rect x="0.0273438" width="80" height="80" rx="12" fill="#28B7FB"/>
<path d="M52.5666 23.8278C52.5666 24.6548 51.8899 25.3315 51.0629 25.3315C50.2358 25.3315 49.5591 24.6548 49.5591 23.8278V22.7H14.6719V31.1962C18.5816 31.8729 21.5892 35.3315 21.5892 39.4669C21.5892 43.6022 18.5816 46.9857 14.6719 47.7375V56.2338H49.4839V55.106C49.4839 54.2789 50.1606 53.6022 50.9877 53.6022C51.8147 53.6022 52.4914 54.2789 52.4914 55.106V56.2338H64.6719V47.8127C60.6117 47.2112 57.4538 43.7526 57.4538 39.4669C57.4538 35.2563 60.6117 31.7225 64.6719 31.121V22.7H52.5666V23.8278ZM41.2884 48.6398L34.8223 45.2563L28.4313 48.6398L29.6343 41.4969L24.4463 36.4593L31.6644 35.4067L34.8974 28.8654L38.1305 35.4067L45.3486 36.4593L40.1606 41.4969L41.2884 48.6398ZM52.5666 48.0383C52.5666 48.8654 51.8899 49.5421 51.0629 49.5421C50.2358 49.5421 49.5591 48.8654 49.5591 48.0383V43.0759C49.5591 42.2488 50.2358 41.5721 51.0629 41.5721C51.8899 41.5721 52.5666 42.2488 52.5666 43.0759V48.0383ZM52.5666 35.933C52.5666 36.7601 51.8899 37.4368 51.0629 37.4368C50.2358 37.4368 49.5591 36.7601 49.5591 35.933V30.9706C49.5591 30.1436 50.2358 29.4669 51.0629 29.4669C51.8899 29.4669 52.5666 30.1436 52.5666 30.9706V35.933Z" fill="white"/>
</svg>


