<svg width="80" height="80" viewBox="0 0 80 80" fill="none" xmlns="http://www.w3.org/2000/svg">
<rect width="80" height="80" rx="12" fill="#28B7FB"/>
<path d="M65 29.0323V51.7264C65.0004 51.9131 64.9528 52.0969 64.8618 52.2598C64.7707 52.4228 64.6394 52.5594 64.4804 52.6567C64.3214 52.7539 64.1401 52.8084 63.954 52.8148C63.7678 52.8213 63.5832 52.7796 63.4179 52.6937L51.3242 46.5637V55.6717C51.3242 55.96 51.2101 56.2365 51.0068 56.4403C50.8036 56.6441 50.528 56.7586 50.2406 56.7586H16.0837C15.7963 56.7586 15.5206 56.6441 15.3174 56.4403C15.1142 56.2365 15 55.96 15 55.6717V25.0869C15 24.7986 15.1142 24.5222 15.3174 24.3183C15.5206 24.1145 15.7963 24 16.0837 24H50.2406C50.528 24 50.8036 24.1145 51.0068 24.3183C51.2101 24.5222 51.3242 24.7986 51.3242 25.0869V34.195L63.4179 28.0649C63.5832 27.979 63.7678 27.9373 63.954 27.9438C64.1401 27.9503 64.3214 28.0047 64.4804 28.102C64.6394 28.1992 64.7707 28.3359 64.8618 28.4988C64.9528 28.6618 65.0004 28.8455 65 29.0323ZM41.6255 40.3793C41.6281 40.1087 41.5618 39.8418 41.4328 39.6041C41.3039 39.3663 41.1166 39.1655 40.8886 39.0207L29.2826 31.3908C29.0371 31.23 28.7527 31.1388 28.4597 31.127C28.1667 31.1151 27.8759 31.1829 27.6182 31.3233C27.3605 31.4637 27.1455 31.6713 26.9959 31.9243C26.8463 32.1773 26.7678 32.4661 26.7685 32.7603V47.9984C26.7685 48.4307 26.9398 48.8454 27.2446 49.1512C27.5495 49.4569 27.9629 49.6287 28.394 49.6287C28.7093 49.631 29.0183 49.5403 29.2826 49.3678L40.8886 41.7379C41.1166 41.5931 41.3039 41.3923 41.4328 41.1545C41.5618 40.9168 41.6281 40.65 41.6255 40.3793Z" fill="white"/>
</svg>
