<svg width="81" height="80" viewBox="0 0 81 80" fill="none" xmlns="http://www.w3.org/2000/svg">
<rect x="0.0136719" width="80" height="80" rx="12" fill="#28B7FB"/>
<path d="M53.6296 21.4815H50.8518V23.3334C50.8497 24.0694 50.5563 24.7747 50.0358 25.2952C49.5154 25.8157 48.8101 26.109 48.074 26.1112H31.4074C30.6714 26.109 29.9661 25.8157 29.4456 25.2952C28.9251 24.7747 28.6318 24.0694 28.6296 23.3334V21.4815H25.8518C25.3611 21.483 24.891 21.6785 24.544 22.0255C24.197 22.3725 24.0014 22.8427 24 23.3334V60.3704C24.0014 60.8611 24.197 61.3313 24.544 61.6783C24.891 62.0252 25.3612 62.2208 25.8518 62.2222H46.9259C45.5596 60.3379 44.8269 58.0683 44.8333 55.7408C44.8333 55.426 44.8426 55.1204 44.8703 54.8148H38.5926C38.3486 54.8124 38.1155 54.7138 37.9438 54.5404C37.7722 54.367 37.6759 54.1329 37.6759 53.8889C37.6759 53.6449 37.7722 53.4108 37.9438 53.2374C38.1155 53.0641 38.3486 52.9654 38.5926 52.963H45.1852C45.7817 50.6555 47.1048 48.6012 48.9591 47.1039C50.8133 45.6065 53.1001 44.7455 55.4814 44.6482V23.3334C55.48 22.8427 55.2844 22.3725 54.9375 22.0255C54.5905 21.6785 54.1203 21.483 53.6296 21.4815ZM28.6481 33.1019L29.6204 34.2501L33.7685 30.1575C33.9434 29.9871 34.1785 29.8927 34.4227 29.8948C34.6668 29.8968 34.9003 29.9952 35.0723 30.1684C35.2443 30.3417 35.341 30.5758 35.3414 30.82C35.3417 31.0641 35.2456 31.2986 35.0741 31.4723L30.5 35.9908C30.3731 36.1179 30.2211 36.2172 30.0538 36.2823C29.8864 36.3475 29.7074 36.3771 29.5279 36.3692C29.3485 36.3614 29.1727 36.3163 29.0117 36.2368C28.8506 36.1573 28.7079 36.0451 28.5926 35.9075L27.2315 34.2963C27.0764 34.1081 27.0018 33.8663 27.0239 33.6234C27.0459 33.3805 27.1629 33.1561 27.3494 32.9988C27.5358 32.8416 27.7768 32.7643 28.0199 32.7836C28.2631 32.8028 28.4888 32.9172 28.6481 33.1019ZM28.6481 42.3612L29.6204 43.5093L33.7685 39.4167C33.9434 39.2464 34.1785 39.152 34.4227 39.154C34.6668 39.1561 34.9003 39.2544 35.0723 39.4277C35.2443 39.6009 35.341 39.8351 35.3414 40.0792C35.3417 40.3234 35.2456 40.5578 35.0741 40.7315L30.5 45.25C30.3731 45.3771 30.2211 45.4764 30.0538 45.5416C29.8864 45.6067 29.7074 45.6363 29.5279 45.6285C29.3485 45.6206 29.1727 45.5755 29.0117 45.496C28.8506 45.4165 28.7079 45.3044 28.5926 45.1667L27.2315 43.5556C27.0764 43.3673 27.0018 43.1255 27.0239 42.8826C27.0459 42.6397 27.1629 42.4153 27.3494 42.2581C27.5358 42.1009 27.7768 42.0235 28.0199 42.0428C28.2631 42.0621 28.4888 42.1765 28.6481 42.3612ZM36 50.9167L31.4259 55.4352C31.299 55.5623 31.1471 55.6616 30.9797 55.7267C30.8124 55.7919 30.6333 55.8215 30.4539 55.8136C30.2744 55.8058 30.0986 55.7607 29.9376 55.6812C29.7766 55.6017 29.6338 55.4896 29.5185 55.3519L28.1574 53.7408C28.0014 53.5526 27.9261 53.3105 27.9479 53.067C27.9696 52.8236 28.0867 52.5987 28.2735 52.4411C28.4603 52.2836 28.7019 52.2063 28.9454 52.226C29.189 52.2457 29.415 52.3608 29.5741 52.5463L30.5463 53.6945L34.6944 49.6019C34.8694 49.4316 35.1044 49.3372 35.3486 49.3392C35.5927 49.3413 35.8262 49.4396 35.9982 49.6129C36.1703 49.7861 36.267 50.0203 36.2673 50.2644C36.2676 50.5086 36.1715 50.743 36 50.9167ZM51.5555 44.6297H38.5926C38.347 44.6297 38.1115 44.5321 37.9378 44.3585C37.7642 44.1848 37.6667 43.9493 37.6667 43.7037C37.6667 43.4582 37.7642 43.2227 37.9378 43.049C38.1115 42.8754 38.347 42.7778 38.5926 42.7778H51.5555C51.7995 42.7803 52.0326 42.8789 52.2043 43.0523C52.3759 43.2256 52.4722 43.4598 52.4722 43.7037C52.4722 43.9477 52.3759 44.1818 52.2043 44.3552C52.0326 44.5286 51.7995 44.6272 51.5555 44.6297ZM51.5555 35.3704H38.5926C38.347 35.3704 38.1115 35.2729 37.9378 35.0992C37.7642 34.9256 37.6667 34.6901 37.6667 34.4445C37.6667 34.1989 37.7642 33.9634 37.9378 33.7898C38.1115 33.6161 38.347 33.5186 38.5926 33.5186H51.5555C51.7995 33.521 52.0326 33.6196 52.2043 33.793C52.3759 33.9664 52.4722 34.2005 52.4722 34.4445C52.4722 34.6885 52.3759 34.9226 52.2043 35.096C52.0326 35.2694 51.7995 35.368 51.5555 35.3704Z" fill="white"/>
<path d="M55.9444 46.4815C54.1449 46.4814 52.3843 47.0057 50.878 47.9903C49.3717 48.9749 48.185 50.3771 47.463 52.0255C46.741 53.6738 46.515 55.4968 46.8126 57.2716C47.1103 59.0464 47.9186 60.6959 49.1389 62.0185C49.5031 61.5109 49.9223 61.0452 50.3889 60.6297C51.9199 59.2697 53.8966 58.5186 55.9444 58.5186C57.9922 58.5186 59.9689 59.2697 61.5 60.6297C61.9665 61.0452 62.3857 61.5109 62.75 62.0185C63.9702 60.6959 64.7786 59.0464 65.0762 57.2716C65.3738 55.4968 65.1478 53.6738 64.4258 52.0255C63.7038 50.3771 62.5171 48.9749 61.0108 47.9903C59.5045 47.0057 57.7439 46.4814 55.9444 46.4815ZM55.9444 57.5926C55.2119 57.5926 54.4958 57.3754 53.8867 56.9684C53.2777 56.5615 52.803 55.983 52.5226 55.3063C52.2423 54.6295 52.169 53.8848 52.3119 53.1664C52.4548 52.4479 52.8075 51.788 53.3255 51.27C53.8435 50.752 54.5034 50.3993 55.2219 50.2564C55.9403 50.1135 56.685 50.1868 57.3618 50.4671C58.0385 50.7475 58.617 51.2222 59.0239 51.8312C59.4309 52.4403 59.6481 53.1564 59.6481 53.8889C59.6481 54.8712 59.2579 55.8132 58.5633 56.5078C57.8687 57.2024 56.9267 57.5926 55.9444 57.5926Z" fill="white"/>
<path d="M61.3426 63.2593C59.7701 64.3911 57.8818 65 55.9444 65C54.007 65 52.1187 64.3911 50.5463 63.2593C50.8898 62.7354 51.3113 62.267 51.7963 61.8704C52.9613 60.9011 54.4289 60.3704 55.9444 60.3704C57.4599 60.3704 58.9276 60.9011 60.0925 61.8704C60.5774 62.2671 60.9989 62.7355 61.3426 63.2593Z" fill="white"/>
<path d="M54.0926 53.8889C54.0926 53.5227 54.2012 53.1646 54.4046 52.8601C54.6081 52.5555 54.8974 52.3182 55.2357 52.178C55.5741 52.0379 55.9465 52.0012 56.3057 52.0727C56.6649 52.1441 56.9949 52.3205 57.2539 52.5795C57.5128 52.8384 57.6892 53.1684 57.7607 53.5276C57.8321 53.8869 57.7955 54.2592 57.6553 54.5976C57.5151 54.936 57.2778 55.2252 56.9732 55.4287C56.6687 55.6322 56.3107 55.7408 55.9444 55.7408C55.454 55.7384 54.9843 55.5426 54.6375 55.1958C54.2908 54.849 54.0949 54.3793 54.0926 53.8889Z" fill="white"/>
<path d="M48.074 18.7038H44.9815C44.5978 17.6205 43.8879 16.6827 42.9494 16.0194C42.0109 15.3561 40.8899 15 39.7407 15C38.5915 15 37.4705 15.3561 36.532 16.0194C35.5935 16.6827 34.8836 17.6205 34.5 18.7038H31.4074C31.1621 18.7045 30.927 18.8023 30.7535 18.9758C30.58 19.1493 30.4822 19.3844 30.4815 19.6297V23.3334C30.4822 23.5787 30.58 23.8138 30.7535 23.9873C30.927 24.1608 31.1621 24.2586 31.4074 24.2593H48.074C48.3194 24.2586 48.5545 24.1608 48.728 23.9873C48.9015 23.8138 48.9992 23.5787 49 23.3334V19.6297C48.9992 19.3844 48.9015 19.1493 48.728 18.9758C48.5545 18.8023 48.3194 18.7045 48.074 18.7038ZM39.7407 18.2408C39.5576 18.2408 39.3786 18.1865 39.2263 18.0848C39.074 17.983 38.9554 17.8384 38.8853 17.6692C38.8152 17.5 38.7969 17.3139 38.8326 17.1342C38.8683 16.9546 38.9565 16.7897 39.086 16.6602C39.2155 16.5307 39.3805 16.4425 39.5601 16.4068C39.7397 16.371 39.9259 16.3894 40.0951 16.4594C40.2642 16.5295 40.4089 16.6482 40.5106 16.8005C40.6123 16.9527 40.6666 17.1318 40.6666 17.3149C40.6659 17.5602 40.5681 17.7953 40.3946 17.9688C40.2212 18.1423 39.9861 18.2401 39.7407 18.2408Z" fill="white"/>
</svg>
