<svg width="81" height="80" viewBox="0 0 81 80" fill="none" xmlns="http://www.w3.org/2000/svg">
<rect x="0.015625" width="80" height="80" rx="12" fill="#28B7FB"/>
<path fill-rule="evenodd" clip-rule="evenodd" d="M59.2363 20H20.7388C20.4278 20.0016 20.13 20.1259 19.9103 20.346C19.6905 20.566 19.5665 20.864 19.5653 21.175V47.606H60.4073V21.175C60.4062 20.8644 60.2825 20.5668 60.0633 20.3469C59.8441 20.1269 59.5469 20.0022 59.2363 20ZM60.8933 49.6365H19.0818L15.8978 54.2765H64.0748L60.8908 49.6385L60.8933 49.6365ZM64.9863 56.309H14.9863V58.559C14.9869 58.8872 15.1172 59.2019 15.3488 59.4344C15.5804 59.6668 15.8946 59.7983 16.2228 59.8H63.7498C64.0776 59.7983 64.3914 59.6672 64.623 59.4352C64.8546 59.2033 64.9851 58.8893 64.9863 58.5615V56.3115V56.309ZM43.1583 30.632C42.9678 30.4414 42.8607 30.183 42.8607 29.9135C42.8607 29.644 42.9678 29.3856 43.1583 29.195C43.3489 29.0044 43.6073 28.8974 43.8768 28.8974C44.1463 28.8974 44.4048 29.0044 44.5953 29.195C45.8161 30.4182 46.5018 32.0758 46.5018 33.804C46.5018 35.5322 45.8161 37.1898 44.5953 38.413C44.4048 38.6036 44.1463 38.7106 43.8768 38.7106C43.6073 38.7106 43.3489 38.6036 43.1583 38.413C42.9678 38.2224 42.8607 37.964 42.8607 37.6945C42.8607 37.425 42.9678 37.1666 43.1583 36.976C43.5755 36.5598 43.9064 36.0654 44.1322 35.5211C44.358 34.9768 44.4742 34.3933 44.4742 33.804C44.4742 33.2147 44.358 32.6312 44.1322 32.0869C43.9064 31.5426 43.5755 31.0482 43.1583 30.632ZM36.8143 36.976C37.0049 37.1666 37.1119 37.425 37.1119 37.6945C37.1119 37.964 37.0049 38.2224 36.8143 38.413C36.6238 38.6036 36.3653 38.7106 36.0958 38.7106C35.8263 38.7106 35.5679 38.6036 35.3773 38.413C34.1565 37.1898 33.4709 35.5322 33.4709 33.804C33.4709 32.0758 34.1565 30.4182 35.3773 29.195C35.5679 29.0044 35.8263 28.8974 36.0958 28.8974C36.3653 28.8974 36.6238 29.0044 36.8143 29.195C37.0049 29.3856 37.1119 29.644 37.1119 29.9135C37.1119 30.183 37.0049 30.4414 36.8143 30.632C36.3972 31.0482 36.0662 31.5426 35.8404 32.0869C35.6146 32.6312 35.4984 33.2147 35.4984 33.804C35.4984 34.3933 35.6146 34.9768 35.8404 35.5211C36.0662 36.0654 36.3972 36.5598 36.8143 36.976ZM46.4578 27.315C46.2736 27.1231 46.172 26.8666 46.1748 26.6006C46.1775 26.3346 46.2844 26.0803 46.4726 25.8922C46.6607 25.7042 46.915 25.5974 47.181 25.5947C47.447 25.592 47.7035 25.6937 47.8953 25.878C48.9412 26.9159 49.7712 28.1504 50.3377 29.5106C50.9041 30.8708 51.1958 32.3296 51.1958 33.803C51.1958 35.2764 50.9041 36.7352 50.3377 38.0954C49.7712 39.4555 48.9412 40.6901 47.8953 41.728C47.7035 41.9123 47.447 42.014 47.181 42.0113C46.915 42.0086 46.6607 41.9018 46.4726 41.7138C46.2844 41.5257 46.1775 41.2714 46.1748 41.0054C46.172 40.7394 46.2736 40.4829 46.4578 40.291C47.3161 39.4423 47.9976 38.4318 48.4626 37.3179C48.9277 36.2041 49.1671 35.009 49.1671 33.802C49.1671 32.595 48.9277 31.3999 48.4626 30.2861C47.9976 29.1722 47.3161 28.1617 46.4578 27.313V27.315ZM33.4973 40.293C33.6879 40.4836 33.7949 40.742 33.7949 41.0115C33.7949 41.281 33.6879 41.5394 33.4973 41.73C33.3068 41.9206 33.0483 42.0276 32.7788 42.0276C32.5093 42.0276 32.2509 41.9206 32.0603 41.73C29.9603 39.6272 28.7807 36.7769 28.7807 33.805C28.7807 30.8331 29.9603 27.9828 32.0603 25.88C32.2509 25.6894 32.5093 25.5824 32.7788 25.5824C33.0483 25.5824 33.3068 25.6894 33.4973 25.88C33.6879 26.0706 33.7949 26.329 33.7949 26.5985C33.7949 26.868 33.6879 27.1264 33.4973 27.317C32.6446 28.1688 31.9681 29.1804 31.5066 30.2938C31.0451 31.4072 30.8075 32.6007 30.8075 33.806C30.8075 35.0113 31.0451 36.2048 31.5066 37.3182C31.9681 38.4316 32.6446 39.4432 33.4973 40.295V40.293ZM37.6998 33.804C37.6998 33.3518 37.8339 32.9097 38.0852 32.5337C38.3364 32.1577 38.6935 31.8646 39.1113 31.6915C39.5291 31.5185 39.9889 31.4732 40.4324 31.5614C40.8759 31.6497 41.2834 31.8674 41.6031 32.1872C41.9229 32.507 42.1407 32.9144 42.2289 33.3579C42.3171 33.8015 42.2718 34.2612 42.0988 34.679C41.9257 35.0968 41.6327 35.4539 41.2566 35.7052C40.8806 35.9564 40.4386 36.0905 39.9863 36.0905C39.3801 36.0898 38.7989 35.8487 38.3703 35.4201C37.9416 34.9914 37.7005 34.4102 37.6998 33.804Z" fill="white"/>
</svg>
